<svg width="60.000000" height="83.000000" viewBox="0 0 60 83" fill="none" xmlns="http://www.w3.org/2000/svg" xmlns:xlink="http://www.w3.org/1999/xlink">
	<desc>
			Created with Pixso.
	</desc>
	<defs/>
	<path id="Vector" d="M58.57 -0.84L12.02 -0.84C8.83 -0.84 5.77 0.43 3.52 2.69C1.26 4.95 0 8.01 0 11.21C0 11.44 0 11.68 0 11.9C0 12.11 0 12 0 12.04L0 69.74C0 73.04 1.31 76.2 3.64 78.53C5.96 80.86 9.12 82.17 12.41 82.18L58.57 82.18C58.95 82.18 59.31 82.03 59.58 81.76C59.84 81.49 60 81.13 60 80.75L60 0.59C60 0.21 59.84 -0.16 59.58 -0.42C59.31 -0.69 58.95 -0.84 58.57 -0.84ZM24.11 16.81C23.73 16.81 23.37 16.96 23.1 17.22C22.83 17.49 22.68 17.86 22.68 18.24L22.68 21.49L17.25 25.87L17.25 8.82L30.95 8.82L30.95 25.87L25.54 21.49L25.54 18.24C25.54 17.86 25.39 17.49 25.12 17.22C24.85 16.96 24.49 16.81 24.11 16.81ZM57.14 8.82L57.14 12.51L33.81 12.51L33.81 8.82L57.14 8.82ZM33.81 15.37L57.14 15.37L57.14 20.38L33.81 20.38L33.81 15.37ZM5.52 4.71C7.25 2.99 9.59 2.02 12.02 2.02L57.14 2.02L57.14 5.96L11.15 5.96C10.77 5.96 10.41 6.11 10.14 6.37C9.87 6.64 9.72 7.01 9.72 7.39C9.72 7.77 9.87 8.13 10.14 8.4C10.41 8.67 10.77 8.82 11.15 8.82L14.4 8.82L14.4 12.51L11.15 12.51C10.77 12.51 10.41 12.66 10.14 12.93C9.87 13.2 9.72 13.56 9.72 13.94C9.72 14.32 9.87 14.69 10.14 14.95C10.41 15.22 10.77 15.37 11.15 15.37L14.4 15.37L14.4 20.38L12.02 20.38C11.72 20.38 11.44 20.38 11.14 20.38C8.98 20.17 6.96 19.2 5.45 17.65C3.93 16.09 3.01 14.05 2.85 11.88C2.85 11.67 2.85 11.42 2.85 11.21C2.85 8.77 3.81 6.44 5.52 4.71ZM57.14 79.31L12.41 79.31C9.88 79.31 7.45 78.3 5.66 76.51C3.86 74.71 2.86 72.28 2.85 69.74L2.85 18.97L2.97 19.1C3.14 19.3 3.34 19.5 3.52 19.68L3.79 19.95C4.09 20.23 4.39 20.49 4.71 20.74L5.68 21.41L6.02 21.61L6.74 22L7.17 22.19L7.87 22.47L8.32 22.63C8.56 22.72 8.81 22.79 9.05 22.85L9.51 22.96L10.34 23.1L10.75 23.1C11.17 23.13 11.59 23.13 12.01 23.1L14.38 23.1L14.38 28.71C14.38 28.99 14.46 29.25 14.6 29.48C14.74 29.71 14.95 29.89 15.19 30.01C15.44 30.13 15.71 30.17 15.98 30.14C16.25 30.11 16.5 30 16.71 29.83L24.09 23.86L31.42 29.97C31.55 30.06 31.68 30.13 31.82 30.19L31.95 30.19L32.25 30.19L32.4 30.19C32.77 30.19 33.14 30.04 33.41 29.77C33.67 29.5 33.82 29.14 33.82 28.76L33.82 23.25L57.14 23.25L57.14 79.31Z" fill="#2B59C3" fill-opacity="1.000000" fill-rule="nonzero"/>
	<path id="Vector" d="M42.98 52.62L35.24 48.9L39.28 36.4C39.45 35.73 39.28 34.88 38.61 34.55C38.1 34.04 37.26 34.04 36.58 34.55L16.71 48.4C16.21 48.74 15.87 49.24 16.04 49.92C16.04 50.59 16.38 51.1 17.05 51.27L24.63 54.99L19.41 66.81C19.07 67.49 19.24 68.33 19.91 68.84C20.25 69.17 20.59 69.17 21.09 69.17C21.43 69.17 21.76 69.17 21.93 68.84L43.15 55.66C43.66 55.32 44 54.82 44 54.14C44 53.47 43.49 52.96 42.98 52.62ZM24.63 63.26L28.33 54.99C28.67 54.14 28.33 53.13 27.49 52.79L21.09 49.75L34.56 40.46L31.7 49.58C31.36 50.42 31.87 51.27 32.54 51.61L38.77 54.65L24.63 63.26Z" fill="#2B59C3" fill-opacity="1.000000" fill-rule="nonzero"/>
</svg>
