<svg width="14.000000" height="14.000000" viewBox="0 0 14 14" fill="none" xmlns="http://www.w3.org/2000/svg" xmlns:xlink="http://www.w3.org/1999/xlink">
	<desc>
			Created with Pixso.
	</desc>
	<defs/>
	<path id="Vector" d="M9.46 0L3.51 0C1.57 0 0 1.57 0 3.51L0 9.46C0 11.39 1.57 12.97 3.51 12.97L9.46 12.97C11.39 12.97 12.97 11.39 12.97 9.46L12.97 3.51C12.97 1.57 11.39 0 9.46 0L9.46 0ZM12.21 9.46C12.21 10.97 10.97 12.21 9.46 12.21L3.51 12.21C1.99 12.21 0.76 10.97 0.76 9.46L0.76 3.51C0.76 1.99 1.99 0.76 3.51 0.76L9.46 0.76C10.97 0.76 12.21 1.99 12.21 3.51L12.21 9.46Z" fill="#181818" fill-opacity="1.000000" fill-rule="nonzero"/>
	<path id="Vector" d="M9.46 -0.21L3.51 -0.21Q3.1 -0.21 2.71 -0.12Q2.38 -0.05 2.06 0.09Q1.75 0.22 1.48 0.4Q1.16 0.61 0.88 0.88Q0.61 1.16 0.4 1.48Q0.22 1.75 0.09 2.06Q-0.05 2.38 -0.12 2.71Q-0.21 3.1 -0.21 3.51L-0.21 9.46Q-0.21 9.86 -0.12 10.25Q-0.05 10.58 0.09 10.9Q0.22 11.21 0.4 11.49Q0.61 11.8 0.88 12.08Q1.16 12.35 1.48 12.56Q1.75 12.74 2.06 12.87Q2.38 13.01 2.71 13.08Q3.1 13.17 3.51 13.17L9.46 13.17Q9.86 13.17 10.25 13.08Q10.58 13.01 10.9 12.87Q11.21 12.74 11.49 12.56Q11.8 12.35 12.08 12.08Q12.35 11.8 12.56 11.49Q12.74 11.21 12.87 10.9Q13.01 10.58 13.08 10.25Q13.17 9.86 13.17 9.46L13.17 3.51Q13.17 3.1 13.08 2.71Q13.01 2.38 12.87 2.06Q12.74 1.75 12.56 1.48Q12.35 1.16 12.08 0.88Q11.8 0.61 11.49 0.4Q11.21 0.22 10.9 0.09Q10.58 -0.05 10.25 -0.12Q9.86 -0.21 9.46 -0.21ZM9.46 0L3.51 0C1.57 0 0 1.57 0 3.51L0 9.46C0 11.39 1.57 12.97 3.51 12.97L9.46 12.97C11.39 12.97 12.97 11.39 12.97 9.46L12.97 3.51C12.97 1.57 11.39 0 9.46 0ZM12.21 9.46C12.21 10.97 10.97 12.21 9.46 12.21L3.51 12.21C1.99 12.21 0.76 10.97 0.76 9.46L0.76 3.51C0.76 1.99 1.99 0.76 3.51 0.76L9.46 0.76C10.97 0.76 12.21 1.99 12.21 3.51L12.21 9.46ZM10.01 11.95Q9.74 12.01 9.46 12.01L3.51 12.01Q3.22 12.01 2.95 11.95Q2.73 11.9 2.51 11.81Q2.3 11.72 2.12 11.59Q1.89 11.45 1.7 11.26Q1.51 11.07 1.37 10.85Q1.25 10.66 1.16 10.45Q1.07 10.23 1.02 10.01Q0.96 9.74 0.96 9.46L0.96 3.51Q0.96 3.22 1.02 2.95Q1.07 2.73 1.16 2.51Q1.25 2.3 1.37 2.12Q1.51 1.89 1.7 1.7Q1.89 1.51 2.12 1.37Q2.3 1.25 2.51 1.16Q2.73 1.07 2.95 1.02Q3.22 0.96 3.51 0.96L9.46 0.96Q9.74 0.96 10.01 1.02Q10.23 1.07 10.45 1.16Q10.66 1.25 10.85 1.37Q11.07 1.51 11.26 1.7Q11.45 1.89 11.59 2.12Q11.72 2.3 11.81 2.51Q11.9 2.73 11.95 2.95Q12.01 3.22 12.01 3.51L12.01 9.46Q12.01 9.74 11.95 10.01Q11.9 10.23 11.81 10.45Q11.72 10.66 11.59 10.85Q11.45 11.07 11.26 11.26Q11.07 11.45 10.85 11.59Q10.66 11.72 10.45 11.81Q10.23 11.9 10.01 11.95Z" fill="#181818" fill-opacity="1.000000" fill-rule="evenodd"/>
	<path id="Vector" d="M6.48 2.93C4.53 2.93 2.93 4.53 2.93 6.48C2.93 8.44 4.53 10.03 6.48 10.03C8.44 10.03 10.03 8.44 10.03 6.48C10.03 4.53 8.44 2.93 6.48 2.93ZM6.48 9.27C4.95 9.27 3.7 8.02 3.7 6.48C3.7 4.95 4.95 3.7 6.48 3.7C8.02 3.7 9.27 4.95 9.27 6.48C9.27 8.02 8.02 9.27 6.48 9.27Z" fill="#181818" fill-opacity="1.000000" fill-rule="nonzero"/>
	<path id="Vector" d="M2.82 5.68Q2.73 6.07 2.73 6.48Q2.73 6.89 2.82 7.28Q2.89 7.62 3.03 7.94Q3.16 8.25 3.35 8.53Q3.56 8.85 3.83 9.13Q4.11 9.41 4.43 9.62Q4.71 9.8 5.02 9.93Q5.34 10.07 5.68 10.14Q6.07 10.23 6.48 10.23Q6.89 10.23 7.28 10.14Q7.62 10.07 7.94 9.93Q8.25 9.8 8.53 9.62Q8.85 9.41 9.13 9.13Q9.41 8.85 9.62 8.53Q9.8 8.25 9.93 7.94Q10.07 7.62 10.14 7.28Q10.23 6.89 10.23 6.48Q10.23 6.07 10.14 5.68Q10.07 5.34 9.93 5.02Q9.8 4.71 9.62 4.43Q9.41 4.11 9.13 3.83Q8.85 3.56 8.53 3.35Q8.25 3.16 7.94 3.03Q7.62 2.89 7.28 2.82Q6.89 2.73 6.48 2.73Q6.07 2.73 5.68 2.82Q5.34 2.89 5.02 3.03Q4.71 3.16 4.43 3.35Q4.11 3.56 3.83 3.83Q3.56 4.11 3.35 4.43Q3.16 4.71 3.03 5.02Q2.89 5.34 2.82 5.68ZM6.48 2.93C4.53 2.93 2.93 4.53 2.93 6.48C2.93 8.44 4.53 10.03 6.48 10.03C8.44 10.03 10.03 8.44 10.03 6.48C10.03 4.53 8.44 2.93 6.48 2.93ZM6.48 9.27C4.95 9.27 3.7 8.02 3.7 6.48C3.7 4.95 4.95 3.7 6.48 3.7C8.02 3.7 9.27 4.95 9.27 6.48C9.27 8.02 8.02 9.27 6.48 9.27ZM3.95 7.04Q3.9 6.77 3.9 6.48Q3.9 6.2 3.95 5.92Q4.01 5.69 4.1 5.48Q4.19 5.26 4.31 5.07Q4.46 4.85 4.65 4.65Q4.85 4.46 5.07 4.31Q5.26 4.19 5.48 4.1Q5.69 4.01 5.92 3.95Q6.2 3.9 6.48 3.9Q6.77 3.9 7.04 3.95Q7.27 4.01 7.49 4.1Q7.7 4.19 7.89 4.31Q8.12 4.46 8.31 4.65Q8.5 4.85 8.65 5.07Q8.77 5.26 8.86 5.48Q8.96 5.69 9.01 5.92Q9.07 6.2 9.07 6.48Q9.07 6.77 9.01 7.04Q8.96 7.27 8.86 7.49Q8.77 7.7 8.65 7.89Q8.5 8.12 8.31 8.31Q8.12 8.5 7.89 8.65Q7.7 8.77 7.49 8.86Q7.27 8.96 7.04 9.01Q6.77 9.07 6.48 9.07Q6.2 9.07 5.92 9.01Q5.69 8.96 5.48 8.86Q5.26 8.77 5.07 8.65Q4.85 8.5 4.65 8.31Q4.46 8.12 4.31 7.89Q4.19 7.7 4.1 7.49Q4.01 7.27 3.95 7.04Z" fill="#181818" fill-opacity="1.000000" fill-rule="evenodd"/>
	<path id="Vector" d="M10.11 1.67C9.54 1.67 9.07 2.14 9.07 2.72C9.07 3.3 9.54 3.77 10.11 3.77C10.69 3.77 11.16 3.3 11.16 2.72C11.16 2.14 10.69 1.67 10.11 1.67ZM10.11 3.01C9.95 3.01 9.83 2.88 9.83 2.72C9.83 2.56 9.95 2.44 10.11 2.44C10.27 2.44 10.4 2.56 10.4 2.72C10.4 2.88 10.27 3.01 10.11 3.01Z" fill="#181818" fill-opacity="1.000000" fill-rule="nonzero"/>
</svg>
