<svg width="14.000000" height="14.000000" viewBox="0 0 14 14" fill="none" xmlns="http://www.w3.org/2000/svg" xmlns:xlink="http://www.w3.org/1999/xlink">
	<desc>
			Created with Pixso.
	</desc>
	<defs/>
	<path id="Vector" d="M9.46 0.01L3.51 0.01C1.57 0.01 0 1.58 0 3.52L0 9.47C0 11.41 1.57 12.98 3.51 12.98L9.46 12.98C11.39 12.98 12.97 11.41 12.97 9.47L12.97 3.52C12.97 1.58 11.39 0.01 9.46 0.01L9.46 0.01ZM12.21 9.47C12.21 10.99 10.97 12.22 9.46 12.22L3.51 12.22C1.99 12.22 0.76 10.99 0.76 9.47L0.76 3.52C0.76 2 1.99 0.77 3.51 0.77L9.46 0.77C10.97 0.77 12.21 2 12.21 3.52L12.21 9.47Z" fill="#FFFFFF" fill-opacity="1.000000" fill-rule="nonzero"/>
	<path id="Vector" d="M9.46 -0.19L3.51 -0.19Q3.1 -0.19 2.71 -0.11Q2.38 -0.04 2.06 0.1Q1.75 0.23 1.48 0.41Q1.16 0.62 0.88 0.9Q0.61 1.17 0.4 1.49Q0.22 1.76 0.09 2.08Q-0.05 2.39 -0.12 2.72Q-0.21 3.11 -0.21 3.52L-0.21 9.47Q-0.21 9.88 -0.12 10.27Q-0.05 10.6 0.09 10.91Q0.22 11.22 0.4 11.5Q0.61 11.82 0.88 12.09Q1.16 12.37 1.48 12.58Q1.75 12.76 2.06 12.89Q2.38 13.02 2.71 13.1Q3.1 13.18 3.51 13.18L9.46 13.18Q9.86 13.18 10.25 13.1Q10.58 13.02 10.9 12.89Q11.21 12.76 11.49 12.58Q11.8 12.37 12.08 12.09Q12.35 11.82 12.56 11.5Q12.74 11.22 12.87 10.91Q13.01 10.6 13.08 10.27Q13.17 9.88 13.17 9.47L13.17 3.52Q13.17 3.11 13.08 2.72Q13.01 2.39 12.87 2.08Q12.74 1.76 12.56 1.49Q12.35 1.17 12.08 0.9Q11.8 0.62 11.49 0.41Q11.21 0.23 10.9 0.1Q10.58 -0.04 10.25 -0.11Q9.86 -0.19 9.46 -0.19ZM9.46 0.01L3.51 0.01C1.57 0.01 0 1.58 0 3.52L0 9.47C0 11.41 1.57 12.98 3.51 12.98L9.46 12.98C11.39 12.98 12.97 11.41 12.97 9.47L12.97 3.52C12.97 1.58 11.39 0.01 9.46 0.01ZM12.21 9.47C12.21 10.99 10.97 12.22 9.46 12.22L3.51 12.22C1.99 12.22 0.76 10.99 0.76 9.47L0.76 3.52C0.76 2 1.99 0.77 3.51 0.77L9.46 0.77C10.97 0.77 12.21 2 12.21 3.52L12.21 9.47ZM10.01 11.96Q9.74 12.02 9.46 12.02L3.51 12.02Q3.22 12.02 2.95 11.96Q2.73 11.91 2.51 11.82Q2.3 11.73 2.12 11.61Q1.89 11.46 1.7 11.27Q1.51 11.08 1.37 10.86Q1.25 10.67 1.16 10.46Q1.07 10.25 1.02 10.02Q0.96 9.75 0.96 9.47L0.96 3.52Q0.96 3.24 1.02 2.97Q1.07 2.74 1.16 2.53Q1.25 2.32 1.37 2.13Q1.51 1.91 1.7 1.72Q1.89 1.52 2.12 1.38Q2.3 1.26 2.51 1.17Q2.73 1.08 2.95 1.03Q3.22 0.97 3.51 0.97L9.46 0.97Q9.74 0.97 10.01 1.03Q10.23 1.08 10.45 1.17Q10.66 1.26 10.85 1.38Q11.07 1.52 11.26 1.72Q11.45 1.91 11.59 2.13Q11.72 2.32 11.81 2.53Q11.9 2.74 11.95 2.97Q12.01 3.24 12.01 3.52L12.01 9.47Q12.01 9.75 11.95 10.02Q11.9 10.25 11.81 10.46Q11.72 10.67 11.59 10.86Q11.45 11.08 11.26 11.27Q11.07 11.46 10.85 11.61Q10.66 11.73 10.45 11.82Q10.23 11.91 10.01 11.96Z" fill="#FFFFFF" fill-opacity="1.000000" fill-rule="evenodd"/>
	<path id="Vector" d="M6.48 2.95C4.53 2.95 2.93 4.54 2.93 6.49C2.93 8.45 4.53 10.04 6.48 10.04C8.44 10.04 10.03 8.45 10.03 6.49C10.03 4.54 8.44 2.95 6.48 2.95ZM6.48 9.28C4.95 9.28 3.7 8.03 3.7 6.49C3.7 4.96 4.95 3.71 6.48 3.71C8.02 3.71 9.27 4.96 9.27 6.49C9.27 8.03 8.02 9.28 6.48 9.28Z" fill="#FFFFFF" fill-opacity="1.000000" fill-rule="nonzero"/>
	<path id="Vector" d="M2.82 5.69Q2.73 6.08 2.73 6.49Q2.73 6.91 2.82 7.3Q2.89 7.63 3.03 7.95Q3.16 8.27 3.35 8.54Q3.56 8.87 3.83 9.14Q4.11 9.42 4.43 9.63Q4.71 9.81 5.02 9.95Q5.34 10.08 5.68 10.16Q6.07 10.24 6.48 10.24Q6.89 10.24 7.28 10.16Q7.62 10.08 7.94 9.95Q8.25 9.81 8.53 9.63Q8.85 9.42 9.13 9.14Q9.41 8.87 9.62 8.54Q9.8 8.27 9.93 7.95Q10.07 7.63 10.14 7.3Q10.23 6.91 10.23 6.49Q10.23 6.08 10.14 5.69Q10.07 5.36 9.93 5.04Q9.8 4.72 9.62 4.44Q9.41 4.12 9.13 3.84Q8.85 3.57 8.53 3.36Q8.25 3.17 7.94 3.04Q7.62 2.91 7.28 2.83Q6.89 2.75 6.48 2.75Q6.07 2.75 5.68 2.83Q5.34 2.91 5.02 3.04Q4.71 3.17 4.43 3.36Q4.11 3.57 3.83 3.84Q3.56 4.12 3.35 4.44Q3.16 4.72 3.03 5.04Q2.89 5.36 2.82 5.69ZM6.48 2.95C4.53 2.95 2.93 4.54 2.93 6.49C2.93 8.45 4.53 10.04 6.48 10.04C8.44 10.04 10.03 8.45 10.03 6.49C10.03 4.54 8.44 2.95 6.48 2.95ZM6.48 9.28C4.95 9.28 3.7 8.03 3.7 6.49C3.7 4.96 4.95 3.71 6.48 3.71C8.02 3.71 9.27 4.96 9.27 6.49C9.27 8.03 8.02 9.28 6.48 9.28ZM3.96 7.05Q3.9 6.78 3.9 6.49Q3.9 6.21 3.95 5.93Q4.01 5.71 4.1 5.49Q4.19 5.27 4.31 5.08Q4.46 4.86 4.65 4.67Q4.85 4.47 5.07 4.33Q5.26 4.2 5.48 4.11Q5.69 4.02 5.92 3.97Q6.2 3.91 6.48 3.91Q6.77 3.91 7.04 3.97Q7.27 4.02 7.49 4.11Q7.7 4.2 7.89 4.33Q8.12 4.47 8.31 4.67Q8.5 4.86 8.65 5.08Q8.77 5.27 8.86 5.49Q8.96 5.71 9.01 5.93Q9.07 6.21 9.07 6.49Q9.07 6.78 9.01 7.05Q8.96 7.28 8.86 7.5Q8.77 7.71 8.65 7.91Q8.5 8.13 8.31 8.32Q8.12 8.52 7.89 8.66Q7.7 8.79 7.49 8.88Q7.27 8.97 7.04 9.02Q6.77 9.08 6.48 9.08Q6.2 9.08 5.92 9.02Q5.69 8.97 5.48 8.88Q5.26 8.79 5.07 8.66Q4.85 8.52 4.65 8.32Q4.46 8.13 4.31 7.91Q4.19 7.71 4.1 7.5Q4.01 7.28 3.96 7.05Z" fill="#FFFFFF" fill-opacity="1.000000" fill-rule="evenodd"/>
	<path id="Vector" d="M10.11 1.69C9.54 1.69 9.07 2.16 9.07 2.73C9.07 3.31 9.54 3.78 10.11 3.78C10.69 3.78 11.16 3.31 11.16 2.73C11.16 2.16 10.69 1.69 10.11 1.69ZM10.11 3.02C9.95 3.02 9.83 2.89 9.83 2.73C9.83 2.58 9.95 2.45 10.11 2.45C10.27 2.45 10.4 2.58 10.4 2.73C10.4 2.89 10.27 3.02 10.11 3.02Z" fill="#FFFFFF" fill-opacity="1.000000" fill-rule="nonzero"/>
</svg>
