<svg width="84.000000" height="36.000000" viewBox="0 0 84 36" fill="none" xmlns="http://www.w3.org/2000/svg" xmlns:xlink="http://www.w3.org/1999/xlink">
	<desc>
			Created with Pixso.
	</desc>
	<defs/>
	<path d="M3.24 22.08L3.33 24.18L3.33 35.05L0 35.05L0 3.46L1.71 1.62L18.37 1.62L18.37 4.95L3.15 4.95L3.33 7.04L3.33 16.63L3.15 18.32L3.37 18.32L17.65 11.25L19.13 14.22L3.24 22.08Z" fill="#181818" fill-opacity="1.000000" fill-rule="nonzero"/>
	<path d="M26.02 35.05L22.78 35.05L22.78 1.62L25.93 1.62L26.11 18.32L26.02 35.05ZM35.88 15.87C34.8 15.87 33.77 15.66 32.8 15.24C31.83 14.81 30.97 14.25 30.28 13.53C29.56 12.81 28.99 11.95 28.59 11C28.16 10.06 27.96 9.02 27.96 7.9C27.96 6.82 28.16 5.8 28.59 4.84C29.02 3.89 29.58 3.03 30.28 2.31C31 1.59 31.83 1.01 32.8 0.6C33.77 0.2 34.8 0 35.88 0C36.99 0 38.02 0.2 38.99 0.63C39.93 1.05 40.79 1.62 41.51 2.34C42.23 3.06 42.82 3.91 43.22 4.86C43.65 5.83 43.85 6.84 43.85 7.92C43.85 9.02 43.65 10.06 43.22 11.03C42.79 12 42.23 12.83 41.51 13.55C40.79 14.27 39.93 14.85 38.99 15.26C38.02 15.66 36.99 15.87 35.88 15.87ZM41.94 35.79L44.62 33.81L34.98 20.84L32.89 18.34L30.3 20.24L41.94 35.79ZM35.88 3.33C35.23 3.33 34.62 3.44 34.08 3.69C33.52 3.94 33.05 4.27 32.62 4.68C32.19 5.11 31.87 5.58 31.65 6.14C31.42 6.7 31.31 7.29 31.31 7.9C31.31 8.55 31.42 9.16 31.65 9.72C31.87 10.28 32.21 10.78 32.62 11.21C33.05 11.63 33.52 11.95 34.08 12.17C34.64 12.4 35.23 12.51 35.88 12.51C36.54 12.51 37.14 12.4 37.68 12.17C38.25 11.95 38.72 11.61 39.15 11.21C39.58 10.78 39.89 10.31 40.14 9.72C40.39 9.16 40.5 8.55 40.5 7.9C40.5 7.29 40.39 6.7 40.14 6.14C39.89 5.58 39.55 5.11 39.15 4.68C38.72 4.25 38.25 3.94 37.68 3.69C37.12 3.46 36.54 3.33 35.88 3.33Z" fill="#181818" fill-opacity="1.000000" fill-rule="nonzero"/>
	<path d="M62.83 4.95L46.13 4.95L46.13 1.62L62.83 1.62L62.83 4.95ZM46.1 20.01L46.1 16.66L62.81 16.66L62.81 19.99L46.1 19.99L46.1 20.01ZM62.83 35.05L46.13 35.05L46.13 31.72L62.83 31.72L62.83 35.05Z" fill="#181818" fill-opacity="1.000000" fill-rule="nonzero"/>
	<path d="M84 4.95L67.29 4.95L67.29 1.62L84 1.62L84 4.95ZM67.27 20.01L67.27 16.66L83.97 16.66L83.97 19.99L67.27 19.99L67.27 20.01ZM84 35.05L67.29 35.05L67.29 31.72L84 31.72L84 35.05Z" fill="#181818" fill-opacity="1.000000" fill-rule="nonzero"/>
</svg>
