<svg width="82.000000" height="87.000000" viewBox="0 0 82 87" fill="none" xmlns="http://www.w3.org/2000/svg" xmlns:xlink="http://www.w3.org/1999/xlink">
	<desc>
			Created with Pixso.
	</desc>
	<defs/>
	<path id="Vector" d="M58.92 15.77C53.12 10.63 45.74 8.26 37.96 9.05C25.44 10.5 15.42 20.65 14.23 33.18C13.44 41.48 16.47 49.53 22.41 55.2C26.1 58.76 28.34 61.92 28.6 67.19L27.42 67.19C26.1 67.19 24.91 68.25 24.91 69.7L24.91 74.84C24.91 76.16 25.97 77.35 27.42 77.35L31.24 77.35L31.24 79.19L27.81 79.19C27.02 79.19 26.49 79.72 26.49 80.51C26.49 81.3 27.02 81.83 27.81 81.83L31.24 81.83L31.24 82.62C31.24 84.47 32.69 86.05 34.67 86.05L47.32 86.05C49.17 86.05 50.75 84.6 50.75 82.62L50.75 81.83L54.18 81.83C54.97 81.83 55.5 81.3 55.5 80.51C55.5 79.72 54.97 79.19 54.18 79.19L50.75 79.19L50.75 77.35L54.57 77.35C55.89 77.35 57.08 76.29 57.08 74.84L57.08 69.7C57.08 68.38 56.02 67.19 54.57 67.19L53.39 67.19C53.65 62.18 55.76 59.02 60.11 54.67C65.12 49.66 67.89 42.93 67.89 35.81C67.89 28.17 64.73 20.91 58.92 15.77ZM48.11 80.51L48.11 82.75C48.11 83.15 47.85 83.54 47.32 83.54L34.67 83.54C34.27 83.54 33.88 83.28 33.88 82.75L33.88 80.64L33.88 77.48L47.98 77.48L47.98 80.51L48.11 80.51ZM54.44 74.71L49.43 74.71L32.69 74.71L27.68 74.71L27.68 69.96L30.05 69.96L52.07 69.96L54.44 69.96L54.44 74.71ZM58.27 52.95C54.31 56.91 51.01 60.87 50.75 67.33L31.24 67.33C30.98 61.13 28.34 57.31 24.25 53.35C18.85 48.21 16.21 40.96 16.87 33.44C17.92 22.1 26.89 12.87 38.23 11.68C45.21 10.89 51.94 13 57.21 17.75C62.35 22.37 65.25 28.96 65.25 35.81C65.25 42.27 62.88 48.34 58.27 52.95Z" fill="#2B59C3" fill-opacity="1.000000" fill-rule="nonzero"/>
	<path id="Vector" d="M51.15 37.53L45.08 34.63L48.25 24.87C48.38 24.34 48.25 23.68 47.72 23.42C47.32 23.02 46.66 23.02 46.14 23.42L30.58 34.23C30.18 34.5 29.92 34.89 30.05 35.42C30.05 35.95 30.32 36.34 30.84 36.47L36.78 39.37L32.69 48.6C32.43 49.13 32.56 49.79 33.08 50.19C33.35 50.45 33.61 50.45 34.01 50.45C34.27 50.45 34.54 50.45 34.67 50.19L51.28 39.9C51.67 39.64 51.94 39.24 51.94 38.71C51.94 38.19 51.54 37.79 51.15 37.53ZM36.78 45.83L39.68 39.37C39.94 38.71 39.68 37.92 39.02 37.66L34.01 35.29L44.55 28.03L42.31 35.15C42.05 35.81 42.45 36.47 42.97 36.74L47.85 39.11L36.78 45.83Z" fill="#2B59C3" fill-opacity="1.000000" fill-rule="nonzero"/>
	<path id="Vector" d="M42.31 4.04L42.31 0.35C42.31 -0.45 41.79 -0.97 41 -0.97C40.2 -0.97 39.68 -0.45 39.68 0.35L39.68 4.04C39.68 4.83 40.2 5.36 41 5.36C41.79 5.36 42.31 4.83 42.31 4.04Z" fill="#2B59C3" fill-opacity="1.000000" fill-rule="nonzero"/>
	<path id="Vector" d="M14.76 14.45L12.12 11.82C11.6 11.29 10.81 11.29 10.28 11.82C9.75 12.34 9.75 13.14 10.28 13.66L12.91 16.3C13.18 16.56 13.57 16.7 13.84 16.7C14.1 16.7 14.5 16.56 14.76 16.3C15.29 15.77 15.29 14.98 14.76 14.45Z" fill="#2B59C3" fill-opacity="1.000000" fill-rule="nonzero"/>
	<path id="Vector" d="M1.31 43.86L5 43.86C5.8 43.86 6.32 43.33 6.32 42.54C6.32 41.75 5.8 41.22 5 41.22L1.31 41.22C0.52 41.22 0 41.75 0 42.54C0 43.33 0.52 43.86 1.31 43.86Z" fill="#2B59C3" fill-opacity="1.000000" fill-rule="nonzero"/>
	<path id="Vector" d="M80.68 43.86C81.47 43.86 82 43.33 82 42.54C82 41.75 81.47 41.22 80.68 41.22L76.99 41.22C76.19 41.22 75.67 41.75 75.67 42.54C75.67 43.33 76.19 43.86 76.99 43.86L80.68 43.86Z" fill="#2B59C3" fill-opacity="1.000000" fill-rule="nonzero"/>
	<path id="Vector" d="M69.21 16.3L71.84 13.66C72.37 13.14 72.37 12.34 71.84 11.82C71.32 11.29 70.53 11.29 70 11.82L67.36 14.45C66.83 14.98 66.83 15.77 67.36 16.3C67.62 16.56 68.02 16.7 68.28 16.7C68.55 16.7 68.94 16.56 69.21 16.3Z" fill="#2B59C3" fill-opacity="1.000000" fill-rule="nonzero"/>
</svg>
