<svg width="85.000000" height="70.000000" viewBox="0 0 85 70" fill="none" xmlns="http://www.w3.org/2000/svg" xmlns:xlink="http://www.w3.org/1999/xlink">
	<desc>
			Created with Pixso.
	</desc>
	<defs/>
	<path id="Vector" d="M73.09 -0.91L35 -0.81L35 15.09L29 15.09L29 28.1L35 28.1L35 34.1L0 34.1L0 60.11L35 60.11L35 69.11L84 69.11L84 10.19L84.09 10.09L73.09 -0.91ZM73 3.29L79.9 10.19L73 10.19L73 3.29ZM32 25.1L32 18.09L46 18.09L46 25.1L32 25.1ZM45.5 37.1L24.5 45.5L3.5 37.1L45.5 37.1ZM3 57.1L3 40.1L24.5 48.7L46 40.1L46 57.1L3 57.1ZM81 66.11L38 66.11L38 63.11L46 63.11L46 60.11L49 60.11L49 34.1L38 34.1L38 31.1L46 31.1L46 28.1L49 28.1L49 15.09L38 15.09L38 2.19L70 2.19L70 13.19L73 13.19L73 16.19L81 16.19L81 66.11Z" fill="#2B59C3" fill-opacity="1.000000" fill-rule="nonzero"/>
</svg>
